<svg xmlns="http://www.w3.org/2000/svg" viewBox="0 0 64 64" width="64" height="64">
  <defs>
    <linearGradient id="g" x1="0" y1="0" x2="1" y2="1">
      <stop offset="0" stop-color="#0e7490"/>
      <stop offset="1" stop-color="#059669"/>
    </linearGradient>
  </defs>
  <rect width="64" height="64" rx="18" fill="url(#g)"/>
  <path d="M32 47.5 C20 39.5 12 32 12 23.5 C12 17.5 16.7 13 22.5 13 C26 13 29.3 14.8 31.3 17.6 L32 18.6 L32.7 17.6 C34.7 14.8 38 13 41.5 13 C47.3 13 52 17.5 52 23.5 C52 32 44 39.5 32 47.5 Z"
    fill="none" stroke="#ffffff" stroke-width="3.4" stroke-linejoin="round" stroke-linecap="round"/>
  <path d="M17 27 L23 27 L26.5 20 L30 34 L33.5 24 L36 27 L47 27"
    fill="none" stroke="#ffffff" stroke-width="3" stroke-linecap="round" stroke-linejoin="round"/>
</svg>
