<svg display="block" role="presentation" viewBox="0 0 227 36" xmlns="http://www.w3.org/2000/svg"><defs ><linearGradient id="gFkTKSthQ-539504230-linear-gradient" x1="0" x2="1" y1="0.4975124378109453" y2="0.5024875621890547"><stop offset="0" stop-color="rgb(0, 167, 235)"/><stop offset="1" stop-color="rgb(43, 202, 166)"/></linearGradient></defs><g d="M 23.565 0.58 C 25.413 0.58 26.757 2.344 26.349 4.081 L 20.035 30.061 C 19.267 33.2 16.433 35.423 13.218 35.423 C 10.002 35.423 7.168 33.202 6.401 30.061 L 0.087 4.129 C -0.369 2.317 1.023 0.628 2.873 0.628 C 4.217 0.628 5.345 1.57 5.657 2.849 L 11.778 29.288 C 11.922 30.013 12.594 30.52 13.314 30.52 C 14.034 30.52 14.706 30.013 14.85 29.288 L 20.971 2.849 C 21.091 1.496 22.267 0.58 23.563 0.58 Z M 37.269 32.646 L 37.269 3.407 C 37.269 1.86 38.493 0.558 40.101 0.558 C 41.709 0.558 42.932 1.79 42.932 3.407 L 42.932 32.646 C 42.932 34.193 41.709 35.495 40.101 35.495 C 38.493 35.423 37.269 34.19 37.269 32.646 Z M 91.28 32.646 L 91.28 6.354 C 91.28 3.143 93.848 0.561 97.042 0.561 C 99.465 0.561 101.675 2.107 102.491 4.424 L 111.684 30.453 L 112.452 30.453 L 112.452 3.407 C 112.452 1.86 113.676 0.558 115.283 0.558 C 116.891 0.558 118.115 1.79 118.115 3.407 L 118.115 29.75 C 118.115 32.888 115.595 35.425 112.474 35.425 C 110.122 35.425 107.96 33.927 107.192 31.658 L 97.639 5.533 L 96.919 5.533 L 96.919 32.646 C 96.919 34.193 95.695 35.495 94.088 35.495 C 92.552 35.423 91.28 34.19 91.28 32.646 Z M 154.58 31.702 C 152.516 34.55 148.89 36 143.633 36 C 138.375 36 134.752 34.55 132.638 31.702 C 130.526 28.853 129.518 24.313 129.518 18.181 C 129.518 12.049 130.598 7.485 132.71 4.492 C 134.821 1.498 138.471 0 143.657 0 C 148.842 0 152.49 1.498 154.604 4.443 C 156.715 7.388 157.723 11.977 157.723 18.181 C 157.723 24.386 156.691 28.877 154.58 31.702 Z M 137.082 28.056 C 138.209 30.059 140.419 31.049 143.659 31.049 C 146.898 31.049 149.109 30.059 150.236 28.104 C 151.364 26.147 151.94 22.839 151.94 18.181 C 151.94 13.523 151.364 10.165 150.188 8.065 C 149.013 5.941 146.853 4.926 143.659 4.926 C 140.465 4.926 138.329 5.965 137.13 8.065 C 135.954 10.189 135.378 13.545 135.378 18.133 C 135.33 22.769 135.906 26.077 137.082 28.056 Z M 190.178 0.58 C 192.026 0.58 193.37 2.344 192.962 4.081 L 186.624 30.013 C 185.856 33.151 183.022 35.372 179.807 35.372 C 176.591 35.372 173.757 33.151 172.99 30.013 L 166.676 4.081 C 166.22 2.271 167.612 0.58 169.46 0.58 C 170.804 0.58 171.931 1.522 172.243 2.8 L 178.245 29.24 C 178.389 29.965 179.061 30.472 179.781 30.472 C 180.5 30.472 181.172 29.965 181.316 29.24 L 187.438 2.8 C 187.702 1.496 188.829 0.58 190.173 0.58 Z M 226.928 32.016 L 220.567 6.301 C 219.847 3.356 217.495 1.037 214.517 0.628 C 210.868 0.169 207.532 2.534 206.668 6.06 L 200.355 31.871 C 199.947 33.466 200.931 35.13 202.563 35.372 C 204.002 35.589 205.274 34.695 205.634 33.296 L 206.45 29.989 L 208.082 22.914 L 208.49 21.271 L 212.091 6.494 C 212.235 5.77 212.907 5.262 213.627 5.262 C 214.347 5.262 215.019 5.77 215.163 6.494 L 219.125 22.912 L 213.315 22.912 C 212.187 22.912 211.204 23.685 210.892 24.77 C 210.484 26.365 211.659 27.86 213.315 27.86 L 220.205 27.86 L 221.548 33.294 C 221.86 34.526 222.94 35.369 224.212 35.369 L 224.26 35.369 C 226.06 35.418 227.331 33.775 226.923 32.013 Z M 80.383 32.016 L 74.022 6.301 C 73.302 3.356 70.95 1.037 67.973 0.628 C 64.325 0.169 60.987 2.534 60.123 6.06 L 53.81 31.871 C 53.402 33.466 54.386 35.13 56.018 35.372 C 57.457 35.589 58.729 34.695 59.089 33.296 L 59.905 29.989 L 61.537 22.914 L 61.945 21.271 L 65.544 6.494 C 65.688 5.77 66.36 5.262 67.08 5.262 C 67.8 5.262 68.472 5.77 68.616 6.494 L 72.577 22.912 L 66.768 22.912 C 65.64 22.912 64.656 23.685 64.344 24.77 C 63.936 26.365 65.112 27.86 66.768 27.86 L 73.657 27.86 L 75.001 33.294 C 75.313 34.526 76.393 35.369 77.665 35.369 L 77.713 35.369 C 79.512 35.418 80.858 33.775 80.376 32.013 Z" fill="transparent" height="36px" id="NXnZnEtCi" width="227.00000172234047px"><path d="M 23.565 0.58 C 25.413 0.58 26.757 2.344 26.349 4.081 L 20.035 30.061 C 19.267 33.2 16.433 35.423 13.218 35.423 C 10.002 35.423 7.168 33.202 6.401 30.061 L 0.087 4.129 C -0.369 2.317 1.023 0.628 2.873 0.628 C 4.217 0.628 5.345 1.57 5.657 2.849 L 11.778 29.288 C 11.922 30.013 12.594 30.52 13.314 30.52 C 14.034 30.52 14.706 30.013 14.85 29.288 L 20.971 2.849 C 21.091 1.496 22.267 0.58 23.563 0.58 Z M 37.269 32.646 L 37.269 3.407 C 37.269 1.86 38.493 0.558 40.101 0.558 C 41.709 0.558 42.932 1.79 42.932 3.407 L 42.932 32.646 C 42.932 34.193 41.709 35.495 40.101 35.495 C 38.493 35.423 37.269 34.19 37.269 32.646 Z M 91.28 32.646 L 91.28 6.354 C 91.28 3.143 93.848 0.561 97.042 0.561 C 99.465 0.561 101.675 2.107 102.491 4.424 L 111.684 30.453 L 112.452 30.453 L 112.452 3.407 C 112.452 1.86 113.676 0.558 115.283 0.558 C 116.891 0.558 118.115 1.79 118.115 3.407 L 118.115 29.75 C 118.115 32.888 115.595 35.425 112.474 35.425 C 110.122 35.425 107.96 33.927 107.192 31.658 L 97.639 5.533 L 96.919 5.533 L 96.919 32.646 C 96.919 34.193 95.695 35.495 94.088 35.495 C 92.552 35.423 91.28 34.19 91.28 32.646 Z M 154.58 31.702 C 152.516 34.55 148.89 36 143.633 36 C 138.375 36 134.752 34.55 132.638 31.702 C 130.526 28.853 129.518 24.313 129.518 18.181 C 129.518 12.049 130.598 7.485 132.71 4.492 C 134.821 1.498 138.471 0 143.657 0 C 148.842 0 152.49 1.498 154.604 4.443 C 156.715 7.388 157.723 11.977 157.723 18.181 C 157.723 24.386 156.691 28.877 154.58 31.702 Z M 137.082 28.056 C 138.209 30.059 140.419 31.049 143.659 31.049 C 146.898 31.049 149.109 30.059 150.236 28.104 C 151.364 26.147 151.94 22.839 151.94 18.181 C 151.94 13.523 151.364 10.165 150.188 8.065 C 149.013 5.941 146.853 4.926 143.659 4.926 C 140.465 4.926 138.329 5.965 137.13 8.065 C 135.954 10.189 135.378 13.545 135.378 18.133 C 135.33 22.769 135.906 26.077 137.082 28.056 Z M 190.178 0.58 C 192.026 0.58 193.37 2.344 192.962 4.081 L 186.624 30.013 C 185.856 33.151 183.022 35.372 179.807 35.372 C 176.591 35.372 173.757 33.151 172.99 30.013 L 166.676 4.081 C 166.22 2.271 167.612 0.58 169.46 0.58 C 170.804 0.58 171.931 1.522 172.243 2.8 L 178.245 29.24 C 178.389 29.965 179.061 30.472 179.781 30.472 C 180.5 30.472 181.172 29.965 181.316 29.24 L 187.438 2.8 C 187.702 1.496 188.829 0.58 190.173 0.58 Z M 226.928 32.016 L 220.567 6.301 C 219.847 3.356 217.495 1.037 214.517 0.628 C 210.868 0.169 207.532 2.534 206.668 6.06 L 200.355 31.871 C 199.947 33.466 200.931 35.13 202.563 35.372 C 204.002 35.589 205.274 34.695 205.634 33.296 L 206.45 29.989 L 208.082 22.914 L 208.49 21.271 L 212.091 6.494 C 212.235 5.77 212.907 5.262 213.627 5.262 C 214.347 5.262 215.019 5.77 215.163 6.494 L 219.125 22.912 L 213.315 22.912 C 212.187 22.912 211.204 23.685 210.892 24.77 C 210.484 26.365 211.659 27.86 213.315 27.86 L 220.205 27.86 L 221.548 33.294 C 221.86 34.526 222.94 35.369 224.212 35.369 L 224.26 35.369 C 226.06 35.418 227.331 33.775 226.923 32.013 Z M 80.383 32.016 L 74.022 6.301 C 73.302 3.356 70.95 1.037 67.973 0.628 C 64.325 0.169 60.987 2.534 60.123 6.06 L 53.81 31.871 C 53.402 33.466 54.386 35.13 56.018 35.372 C 57.457 35.589 58.729 34.695 59.089 33.296 L 59.905 29.989 L 61.537 22.914 L 61.945 21.271 L 65.544 6.494 C 65.688 5.77 66.36 5.262 67.08 5.262 C 67.8 5.262 68.472 5.77 68.616 6.494 L 72.577 22.912 L 66.768 22.912 C 65.64 22.912 64.656 23.685 64.344 24.77 C 63.936 26.365 65.112 27.86 66.768 27.86 L 73.657 27.86 L 75.001 33.294 C 75.313 34.526 76.393 35.369 77.665 35.369 L 77.713 35.369 C 79.512 35.418 80.858 33.775 80.376 32.013 Z" fill="url(#gFkTKSthQ-539504230-linear-gradient)" height="36px" id="gFkTKSthQ" transform="translate(0 0)" width="227.00000172234047px"/></g></svg>